<?xml version="1.0" standalone="no"?>
<!DOCTYPE svg PUBLIC "-//W3C//DTD SVG 20010904//EN"
 "http://www.w3.org/TR/2001/REC-SVG-20010904/DTD/svg10.dtd">
<svg version="1.0" xmlns="http://www.w3.org/2000/svg"
 width="376.000000pt" height="292.000000pt" viewBox="0 0 376.000000 292.000000"
 preserveAspectRatio="xMidYMid meet">

<g transform="translate(0.000000,292.000000) scale(0.100000,-0.100000)"
fill="#000000" stroke="none">
<path d="M3200 2909 c0 -5 5 -7 10 -4 6 3 10 8 10 11 0 2 -4 4 -10 4 -5 0 -10
-5 -10 -11z"/>
<path d="M3240 2902 c0 -10 -5 -23 -12 -30 -9 -9 -7 -12 9 -12 15 0 22 8 25
30 3 20 0 30 -9 30 -7 0 -13 -8 -13 -18z"/>
<path d="M3331 2903 c-7 -8 -22 -12 -32 -10 -24 7 -24 -4 2 -48 l22 -36 -22
-6 c-25 -6 -25 -7 -9 -33 7 -10 8 -23 4 -27 -5 -4 -11 -2 -13 5 -5 14 -33 17
-33 3 0 -5 7 -11 15 -15 8 -3 15 -17 15 -31 0 -25 14 -33 25 -15 4 6 11 8 16
4 5 -3 -2 -15 -16 -26 -18 -14 -25 -28 -24 -51 3 -55 21 -97 43 -97 18 0 18
-1 3 -18 -20 -22 -22 -58 -4 -66 6 -3 0 -4 -15 -1 -28 5 -28 5 -28 -45 0 -27
4 -50 9 -50 22 0 39 13 34 26 -3 9 2 14 16 14 16 0 21 -6 21 -25 0 -21 -6 -26
-40 -31 -24 -4 -40 -12 -40 -20 0 -10 13 -14 40 -14 22 0 40 -4 40 -9 0 -5 -9
-7 -20 -4 -13 3 -22 -1 -26 -12 -7 -17 -8 -17 -21 1 -12 17 -13 17 -13 -2 -1
-18 -1 -18 -11 -1 -13 23 -29 22 -29 -3 0 -11 -4 -20 -10 -20 -5 0 -10 -10
-10 -22 0 -21 1 -21 13 -3 8 10 19 15 25 11 17 -10 15 -26 -3 -26 -21 0 -19
-16 7 -40 14 -13 35 -20 60 -20 44 0 49 -13 12 -36 -19 -13 -24 -24 -21 -41 2
-13 0 -23 -4 -23 -5 0 -9 -4 -9 -10 0 -14 38 -12 43 3 6 18 14 6 21 -35 6 -31
4 -38 -9 -38 -8 0 -15 5 -15 10 0 15 -29 12 -46 -5 -14 -13 -12 -15 19 -15 51
0 70 -9 56 -26 -7 -8 -31 -14 -60 -14 -37 0 -49 -4 -49 -15 0 -8 5 -15 10 -15
6 0 10 5 10 10 0 6 18 10 40 10 35 0 40 -3 40 -23 0 -18 -5 -23 -27 -22 -24 0
-28 -4 -28 -27 1 -16 -5 -28 -12 -28 -7 0 -13 -4 -13 -10 0 -5 7 -10 15 -10 8
0 15 -4 15 -10 0 -5 -7 -10 -15 -10 -8 0 -15 -5 -15 -11 0 -7 15 -9 43 -4 l42
6 -29 -15 c-15 -9 -41 -16 -57 -16 -17 0 -29 -5 -29 -13 0 -17 29 -56 30 -39
0 19 18 14 25 -8 5 -15 15 -20 42 -20 31 0 40 -12 12 -16 -5 -1 -13 -2 -18 -3
-13 -2 -24 -53 -12 -60 11 -7 14 -81 5 -129 -5 -25 -11 -32 -30 -32 -43 0 -25
-20 19 -21 l42 -2 -52 -10 c-40 -7 -53 -14 -53 -28 0 -9 -6 -20 -12 -22 -9 -4
-10 -6 -1 -6 6 -1 19 6 27 14 12 13 20 14 36 5 18 -10 21 -19 18 -62 -2 -30
-8 -53 -15 -56 -7 -2 -13 3 -13 12 0 9 -4 16 -10 16 -5 0 -10 -7 -10 -15 0 -8
5 -15 10 -15 6 0 10 -11 10 -25 0 -14 4 -25 10 -25 6 0 5 -10 -2 -25 -6 -14
-15 -25 -20 -25 -4 0 -8 -7 -8 -15 0 -17 35 -21 45 -5 15 24 35 9 35 -25 0
-19 -4 -35 -10 -35 -5 0 -10 -7 -10 -15 0 -8 7 -15 16 -15 8 0 12 -4 9 -10 -3
-5 -14 -10 -25 -10 -18 0 -35 -25 -31 -48 1 -6 -8 -12 -20 -12 -12 0 -20 -3
-16 -6 3 -3 24 -3 47 1 36 6 39 9 24 19 -13 10 -14 15 -5 20 17 11 24 2 24
-28 0 -22 3 -25 22 -20 13 3 26 1 29 -5 5 -7 -4 -11 -22 -11 -16 0 -43 -7 -60
-16 -18 -8 -42 -13 -54 -10 -13 3 -17 3 -10 0 6 -3 12 -14 12 -25 0 -10 7 -19
15 -19 8 0 15 4 15 9 0 5 13 11 29 13 23 3 28 1 23 -11 -3 -9 -12 -21 -20 -27
-12 -8 -11 -12 2 -23 11 -9 16 -30 16 -66 0 -47 -3 -53 -23 -59 -28 -7 -56
-56 -32 -56 11 0 15 -11 15 -39 0 -33 -4 -40 -22 -44 -13 -2 -4 -5 20 -6 30
-1 42 -5 42 -16 0 -11 -11 -15 -40 -15 -29 0 -40 -4 -40 -15 0 -11 12 -15 43
-17 l42 -1 -37 -4 c-45 -5 -50 -25 -13 -49 17 -11 24 -23 20 -34 -3 -10 1 -25
10 -33 20 -21 19 -23 -12 -22 -14 0 -28 -6 -30 -12 -3 -7 2 -13 11 -13 12 0
13 -5 5 -30 -6 -16 -17 -30 -25 -30 -8 0 -14 -9 -14 -20 0 -11 4 -20 9 -20 5
0 11 -9 14 -20 3 -12 14 -20 26 -20 29 0 26 -13 -6 -27 -37 -17 -46 -16 -39 4
4 10 4 14 0 10 -4 -4 -8 -34 -8 -67 -1 -51 2 -60 17 -60 11 0 17 8 18 23 l0
22 11 -22 c6 -13 15 -23 19 -23 4 0 10 10 12 23 l4 22 2 -22 1 -23 200 0 200
0 0 1460 0 1461 -207 -2 c-171 0 -210 -3 -222 -16z m25 -100 c-11 -11 -17 4
-9 23 7 18 8 18 11 1 2 -10 1 -21 -2 -24z m-11 -33 c3 -5 -1 -10 -10 -10 -9 0
-13 5 -10 10 3 6 8 10 10 10 2 0 7 -4 10 -10z m25 -100 c0 -5 -7 -7 -15 -4 -8
4 -15 8 -15 10 0 2 7 4 15 4 8 0 15 -4 15 -10z m30 -420 c0 -5 -9 -10 -20 -10
-11 0 -20 5 -20 10 0 6 9 10 20 10 11 0 20 -4 20 -10z m-90 -31 c0 6 7 11 15
11 16 0 20 -27 6 -49 -7 -11 -13 -9 -30 8 -25 25 -30 51 -6 31 10 -9 15 -9 15
-1z m100 -329 c0 -5 -7 -10 -15 -10 -8 0 -15 5 -15 10 0 6 7 10 15 10 8 0 15
-4 15 -10z m-50 -190 c0 -11 -4 -20 -10 -20 -5 0 -10 2 -10 4 0 2 -3 11 -6 20
-4 11 -1 16 10 16 9 0 16 -8 16 -20z m80 -870 c0 -5 -2 -10 -4 -10 -3 0 -8 5
-11 10 -3 6 -1 10 4 10 6 0 11 -4 11 -10z m-80 -220 c0 -5 -5 -10 -11 -10 -5
0 -7 5 -4 10 3 6 8 10 11 10 2 0 4 -4 4 -10z m-25 -420 c-3 -5 -13 -10 -21
-10 -8 0 -14 5 -14 10 0 6 9 10 21 10 11 0 17 -4 14 -10z m45 -110 c0 -5 -4
-10 -10 -10 -5 0 -10 5 -10 10 0 6 5 10 10 10 6 0 10 -4 10 -10z"/>
<path d="M3245 2830 c4 -6 11 -8 16 -5 14 9 11 15 -7 15 -8 0 -12 -5 -9 -10z"/>
<path d="M3280 2829 c0 -5 5 -7 10 -4 6 3 10 8 10 11 0 2 -4 4 -10 4 -5 0 -10
-5 -10 -11z"/>
<path d="M3246 2791 c-4 -5 -2 -12 3 -15 5 -4 12 -2 15 3 4 5 2 12 -3 15 -5 4
-12 2 -15 -3z"/>
<path d="M1793 2713 c-22 -32 -62 -94 -88 -138 -186 -305 -255 -421 -255 -431
0 -16 119 -70 129 -58 5 5 58 95 119 199 61 105 117 198 124 208 12 16 26 -6
133 -194 66 -116 126 -213 134 -216 18 -8 121 48 121 66 0 16 -344 589 -369
614 -5 5 -25 -15 -48 -50z m230 -263 c91 -151 168 -282 172 -291 4 -11 -8 -23
-46 -43 -29 -17 -54 -25 -60 -19 -5 5 -64 106 -132 225 l-124 216 -128 -220
c-71 -120 -132 -221 -136 -224 -5 -3 -86 36 -107 52 -2 1 59 105 136 231 247
405 233 385 247 366 6 -10 87 -142 178 -293z"/>
<path d="M3242 2588 c6 -18 28 -21 28 -4 0 9 -7 16 -16 16 -9 0 -14 -5 -12
-12z"/>
<path d="M3267 2530 c-3 -11 -1 -23 4 -26 5 -3 9 6 9 20 0 31 -6 34 -13 6z"/>
<path d="M3211 2523 c-18 -19 -10 -25 12 -8 10 7 15 15 10 18 -4 3 -14 -2 -22
-10z"/>
<path d="M3235 2370 c-3 -5 -1 -10 4 -10 6 0 11 5 11 10 0 6 -2 10 -4 10 -3 0
-8 -4 -11 -10z"/>
<path d="M2215 2079 c-4 -6 -14 -8 -23 -4 -9 3 -13 3 -9 -1 4 -4 -21 -25 -55
-47 -35 -22 -78 -53 -96 -68 -18 -16 -39 -26 -45 -23 -7 4 -9 4 -5 0 4 -5 -17
-36 -46 -70 -29 -34 -63 -81 -76 -104 l-23 -42 -40 61 c-49 75 -114 142 -198
204 -65 48 -149 95 -169 95 -32 0 -101 -227 -99 -322 1 -28 6 -10 14 52 14
102 68 260 89 260 6 0 50 -23 96 -52 104 -63 225 -182 270 -264 l34 -61 42 71
c25 42 70 99 111 137 67 63 217 169 239 169 14 0 44 -68 73 -164 71 -231 -33
-487 -261 -643 -95 -65 -181 -113 -202 -113 -51 0 -230 116 -319 206 -78 78
-139 190 -162 296 -10 46 -14 54 -14 30 -1 -42 33 -142 71 -212 41 -73 177
-205 263 -256 111 -66 152 -84 172 -77 45 16 234 137 285 183 66 58 135 164
174 265 39 99 38 224 -1 345 -43 134 -71 180 -90 149z"/>
<path d="M3255 2040 c-3 -6 1 -7 9 -4 18 7 21 14 7 14 -6 0 -13 -4 -16 -10z"/>
<path d="M3201 1984 c0 -11 3 -14 6 -6 3 7 2 16 -1 19 -3 4 -6 -2 -5 -13z"/>
<path d="M3247 1994 c-8 -8 1 -24 14 -24 5 0 9 7 9 15 0 15 -12 20 -23 9z"/>
<path d="M1464 1844 c-14 -65 -15 -87 -5 -148 29 -174 117 -286 313 -396 l58
-32 67 37 c202 109 313 269 313 451 0 64 -18 154 -31 154 -4 0 -34 -20 -67
-45 -108 -79 -169 -174 -233 -364 -16 -47 -29 -92 -28 -100 0 -9 19 38 42 104
24 66 56 144 72 174 36 65 106 144 167 188 l45 32 13 -59 c39 -185 -53 -372
-243 -493 -113 -72 -107 -71 -179 -31 -209 118 -299 254 -298 450 1 43 6 91
13 107 l12 27 61 -49 c94 -76 148 -158 200 -301 30 -85 78 -185 71 -150 -10
46 -106 272 -137 320 -31 49 -121 139 -177 178 l-32 22 -17 -76z"/>
<path d="M3195 1880 c-3 -5 1 -10 10 -10 9 0 13 5 10 10 -3 6 -8 10 -10 10 -2
0 -7 -4 -10 -10z"/>
<path d="M3265 1630 c4 -6 11 -8 16 -5 14 9 11 15 -7 15 -8 0 -12 -5 -9 -10z"/>
<path d="M3238 1468 c9 -9 15 -9 24 0 9 9 7 12 -12 12 -19 0 -21 -3 -12 -12z"/>
<path d="M3280 1459 c0 -11 5 -17 10 -14 6 3 10 13 10 21 0 8 -4 14 -10 14 -5
0 -10 -9 -10 -21z"/>
<path d="M2986 988 c3 -5 10 -6 15 -3 13 9 11 12 -6 12 -8 0 -12 -4 -9 -9z"/>
<path d="M3288 993 c7 -3 16 -2 19 1 4 3 -2 6 -13 5 -11 0 -14 -3 -6 -6z"/>
<path d="M2340 973 c-8 -3 -31 -13 -52 -23 -20 -10 -39 -17 -42 -14 -3 2 -4 1
-2 -2 3 -3 -11 -26 -29 -50 -58 -76 -69 -155 -35 -248 75 -199 355 -209 456
-16 27 52 26 172 -3 225 -30 56 -80 101 -132 120 -42 14 -130 19 -161 8z m195
-37 c101 -60 140 -193 90 -312 -20 -49 -83 -102 -138 -119 -101 -30 -169 -13
-243 60 -44 44 -54 60 -64 109 -6 32 -9 74 -5 94 15 81 80 161 151 188 59 22
153 13 209 -20z"/>
<path d="M2325 837 c-56 -56 -56 -164 1 -218 21 -20 36 -24 86 -24 54 0 62 3
88 32 55 61 49 167 -11 218 -24 19 -42 25 -81 25 -43 0 -54 -4 -83 -33z m160
-1 c13 -13 29 -42 35 -65 30 -112 -64 -203 -163 -156 -41 19 -59 55 -59 118 0
83 39 126 115 127 37 0 53 -5 72 -24z"/>
<path d="M2709 969 c-5 -3 -8 -104 -7 -240 l3 -234 63 -3 62 -3 0 76 c0 61 3
75 16 75 9 0 12 -5 8 -12 -4 -6 -3 -8 3 -5 6 4 29 -24 52 -63 42 -70 42 -70
86 -70 25 0 45 -5 48 -12 4 -10 6 -10 6 0 1 6 13 12 27 12 17 0 23 -4 18 -12
-4 -7 -3 -9 1 -5 13 11 15 38 2 30 -7 -4 -8 0 -4 11 4 10 3 15 -3 11 -9 -6
-46 53 -42 68 1 5 -1 6 -5 4 -5 -3 -19 12 -31 34 -18 32 -20 39 -7 39 8 0 15
5 15 11 0 5 6 7 13 3 6 -4 9 -4 5 1 -4 4 2 25 12 46 25 49 25 104 0 152 -11
20 -20 40 -20 44 0 5 -3 8 -7 8 -5 1 -23 9 -42 19 -26 14 -59 18 -148 19 -63
1 -119 -1 -124 -4z m254 -23 c69 -29 99 -90 86 -175 -5 -33 -15 -53 -40 -75
l-34 -31 52 -82 53 -83 -59 0 -58 0 -50 78 c-37 58 -55 78 -71 78 -21 0 -22
-5 -22 -78 l0 -78 -55 0 -55 0 0 230 0 230 110 0 c71 0 122 -5 143 -14z"/>
<path d="M2818 807 l4 -64 46 4 c113 9 108 123 -5 123 l-48 0 3 -63z m102 33
c35 -35 6 -80 -51 -80 l-39 0 0 50 0 50 35 0 c22 0 43 -8 55 -20z"/>
<path d="M2870 840 c-13 -8 -12 -10 3 -10 9 0 17 5 17 10 0 12 -1 12 -20 0z"/>
<path d="M2877 809 c6 -6 9 -18 6 -25 -3 -9 2 -14 13 -13 11 0 14 3 7 5 -7 3
-10 11 -7 18 3 8 -3 17 -13 20 -14 6 -15 4 -6 -5z"/>
<path d="M607 964 c-11 -11 -8 -304 3 -343 11 -38 60 -95 101 -116 82 -43 202
-23 263 45 50 55 58 93 54 265 l-3 150 -60 0 -60 0 -3 -150 c-1 -87 -7 -159
-13 -172 -23 -44 -109 -54 -141 -16 -9 11 -15 65 -18 177 l-5 161 -55 3 c-31
2 -59 0 -63 -4z m113 -160 l0 -156 30 -30 c28 -27 36 -30 73 -25 28 4 49 14
64 32 22 25 23 35 23 181 l0 154 56 0 56 0 -4 -168 c-3 -166 -3 -169 -31 -211
-57 -86 -176 -113 -274 -63 -88 45 -103 87 -103 287 l0 155 55 0 55 0 0 -156z"/>
<path d="M1094 957 c-2 -7 -3 -114 -2 -237 l3 -225 55 -1 55 -1 -52 4 -53 4 0
230 0 229 50 0 50 0 91 -122 c99 -134 104 -139 98 -120 -2 6 -44 66 -93 132
l-89 120 -54 0 c-34 0 -55 -5 -59 -13z"/>
<path d="M1407 963 c-10 -16 -10 -274 -1 -283 5 -5 8 49 6 135 l-3 145 55 0
56 0 0 -230 0 -230 -50 0 -50 0 -111 148 c-62 81 -109 139 -105 129 3 -10 7
-76 8 -145 l2 -127 6 119 5 119 94 -127 94 -127 56 3 56 3 0 235 0 235 -57 3
c-31 2 -59 -1 -61 -5z"/>
<path d="M1597 964 c-10 -10 -8 -446 2 -462 5 -9 25 -12 62 -10 l54 3 0 235 0
235 -55 3 c-31 2 -59 0 -63 -4z m113 -234 l0 -230 -50 0 -50 0 0 214 c0 118
-3 221 -6 230 -5 13 3 16 50 16 l56 0 0 -230z"/>
<path d="M1794 957 c-2 -7 -3 -114 -2 -237 l3 -225 60 0 60 0 5 83 5 82 69
-85 68 -85 73 0 c56 0 76 4 86 17 12 14 12 16 0 8 -11 -6 -13 -4 -8 9 4 9 3
15 -2 12 -7 -5 -142 135 -190 196 -12 16 -6 25 52 85 94 99 127 139 120 147
-3 3 -37 6 -74 6 l-67 0 -66 -72 -66 -72 0 56 c0 83 -3 88 -66 88 -35 0 -56
-5 -60 -13z m108 -82 l3 -84 75 84 75 85 68 0 69 0 -100 -107 -101 -107 111
-123 110 -123 -70 0 -70 0 -84 100 -83 99 -3 -99 -3 -100 -49 0 -50 0 0 230 0
230 50 0 49 0 3 -85z"/>
<path d="M2567 949 c7 -7 15 -10 18 -7 3 3 -2 9 -12 12 -14 6 -15 5 -6 -5z"/>
<path d="M3120 923 c0 -14 23 -43 34 -43 3 0 6 11 6 24 0 15 -7 26 -20 29 -13
3 -20 0 -20 -10z"/>
<path d="M3077 883 c-4 -3 -7 -13 -7 -22 1 -13 3 -13 11 2 11 19 8 33 -4 20z"/>
<path d="M3093 863 c-3 -10 -8 -22 -10 -28 -3 -5 3 -1 11 9 16 20 21 36 11 36
-3 0 -8 -8 -12 -17z"/>
<path d="M3080 799 c0 -5 5 -7 10 -4 6 3 10 8 10 11 0 2 -4 4 -10 4 -5 0 -10
-5 -10 -11z"/>
<path d="M3100 745 c0 -8 4 -15 8 -15 5 0 9 7 9 15 0 8 -4 15 -9 15 -4 0 -8
-7 -8 -15z"/>
<path d="M3310 736 c0 -13 -3 -31 -6 -40 -4 -10 -1 -16 9 -16 9 0 18 9 21 20
3 11 9 29 12 40 4 15 1 20 -15 20 -16 0 -21 -6 -21 -24z"/>
<path d="M3068 723 c7 -3 16 -2 19 1 4 3 -2 6 -13 5 -11 0 -14 -3 -6 -6z"/>
<path d="M3105 710 c-3 -5 1 -10 10 -10 9 0 13 5 10 10 -3 6 -8 10 -10 10 -2
0 -7 -4 -10 -10z"/>
<path d="M2671 694 c0 -11 3 -14 6 -6 3 7 2 16 -1 19 -3 4 -6 -2 -5 -13z"/>
<path d="M3079 675 c-1 -3 -2 -8 -3 -12 -1 -5 -5 -13 -9 -20 -4 -6 -3 -14 2
-17 5 -4 12 -2 16 4 4 6 12 5 21 -5 19 -18 37 -20 32 -2 -3 6 -9 12 -14 12
-19 0 -33 16 -27 30 3 8 0 15 -6 15 -6 0 -12 -2 -12 -5z"/>
<path d="M3150 669 c0 -11 27 -12 34 -1 2 4 -4 9 -15 9 -10 1 -19 -2 -19 -8z"/>
<path d="M3096 588 c3 -5 10 -6 15 -3 13 9 11 12 -6 12 -8 0 -12 -4 -9 -9z"/>
<path d="M3271 584 c0 -11 3 -14 6 -6 3 7 2 16 -1 19 -3 4 -6 -2 -5 -13z"/>
<path d="M3202 560 c0 -14 2 -19 5 -12 2 6 2 18 0 25 -3 6 -5 1 -5 -13z"/>
<path d="M3163 493 c9 -2 23 -2 30 0 6 3 -1 5 -18 5 -16 0 -22 -2 -12 -5z"/>
<path d="M3120 470 c-9 -6 -10 -10 -3 -10 6 0 15 5 18 10 8 12 4 12 -15 0z"/>
<path d="M3165 410 c3 -5 12 -7 20 -3 21 7 19 13 -6 13 -11 0 -18 -4 -14 -10z"/>
<path d="M3280 356 c0 -9 5 -16 10 -16 6 0 10 4 10 9 0 6 -4 13 -10 16 -5 3
-10 -1 -10 -9z"/>
<path d="M3248 150 c-7 -24 -3 -38 8 -28 3 4 4 17 2 30 l-3 23 -7 -25z"/>
</g>
</svg>
