<svg xmlns="http://www.w3.org/2000/svg" xmlns:xlink="http://www.w3.org/1999/xlink" width="752" zoomAndPan="magnify" viewBox="0 0 564 209.999996" height="280" preserveAspectRatio="xMidYMid meet" version="1.0"><path fill="#ffffff" d="M 0.367188 104.996094 C 0.367188 161.742188 0.453125 184.957031 0.5625 156.582031 C 0.667969 128.210938 0.667969 81.78125 0.5625 53.410156 C 0.453125 25.035156 0.367188 48.25 0.367188 104.996094 M 87.15625 61.292969 L 72.71875 82.949219 L 77.222656 85.222656 C 80.515625 86.882812 81.875 87.257812 82.273438 86.609375 C 82.574219 86.121094 87.074219 79.363281 92.269531 71.589844 L 101.71875 57.457031 L 111.453125 72.046875 C 116.808594 80.070312 121.34375 86.636719 121.535156 86.636719 C 121.722656 86.636719 123.710938 85.738281 125.953125 84.640625 C 128.191406 83.542969 129.890625 82.292969 129.726562 81.867188 C 129.492188 81.253906 102.414062 40.546875 101.757812 39.820312 C 101.667969 39.71875 95.09375 49.378906 87.15625 61.292969 M 425.933594 75.492188 C 423.710938 76.234375 420.457031 77.585938 418.699219 78.488281 C 411.503906 82.191406 404.96875 90.546875 402.824219 98.78125 C 401.269531 104.742188 401.382812 113.394531 403.082031 118.855469 C 404.988281 124.980469 407.472656 128.960938 412.152344 133.386719 C 419.003906 139.867188 427.230469 143.15625 436.609375 143.171875 C 442.699219 143.183594 449.078125 141.664062 453.851562 139.0625 C 458.152344 136.722656 463.628906 131.519531 466.433594 127.105469 C 467.617188 125.246094 469.273438 121.457031 470.117188 118.691406 C 471.375 114.566406 471.585938 112.355469 471.304688 106.460938 C 471 100.101562 470.648438 98.609375 468.296875 93.664062 C 464.753906 86.195312 459.402344 80.855469 451.898438 77.292969 C 446.609375 74.78125 445.714844 74.589844 438.105469 74.375 C 431.699219 74.191406 429.113281 74.429688 425.933594 75.492188 M 175.65625 99.304688 L 175.886719 122.988281 L 178.019531 127.605469 C 180.691406 133.386719 186.351562 138.753906 192.226562 141.070312 C 195.722656 142.449219 197.90625 142.742188 204.90625 142.777344 C 213.019531 142.8125 213.5625 142.71875 218.269531 140.402344 C 224.140625 137.511719 228.394531 132.988281 230.742188 127.132812 C 232.332031 123.171875 232.414062 121.945312 232.613281 99.304688 L 232.824219 75.621094 L 218.847656 75.621094 L 218.828125 97.835938 C 218.816406 117.910156 218.683594 120.339844 217.445312 123.058594 C 216.695312 124.714844 215.058594 126.796875 213.8125 127.683594 C 212.566406 128.570312 209.777344 129.667969 207.609375 130.125 C 204.226562 130.832031 203.066406 130.75 199.382812 129.539062 C 196.203125 128.492188 194.507812 127.398438 192.832031 125.308594 L 190.574219 122.488281 L 190.359375 99.054688 L 190.148438 75.621094 L 175.429688 75.621094 Z M 245.113281 108.667969 L 244.914062 141.714844 L 258.867188 141.714844 L 258.738281 119.867188 C 258.636719 102.871094 258.800781 98.324219 259.472656 99.386719 C 259.949219 100.140625 266.480469 109.886719 273.988281 121.050781 L 287.640625 141.347656 L 295.652344 141.550781 L 303.664062 141.757812 L 303.664062 75.621094 L 289.300781 75.621094 L 289.507812 97.984375 C 289.617188 110.28125 289.492188 120.113281 289.226562 119.832031 C 288.960938 119.546875 282.257812 109.484375 274.332031 97.46875 L 259.925781 75.621094 L 245.3125 75.621094 Z M 317.25 108.667969 L 317.25 141.714844 L 331.570312 141.714844 L 331.570312 75.621094 L 317.25 75.621094 Z M 345.152344 108.667969 L 345.152344 141.714844 L 359.898438 141.714844 L 359.6875 126.292969 C 359.570312 117.808594 359.640625 110.890625 359.839844 110.914062 C 360.042969 110.9375 362.027344 113.199219 364.246094 115.941406 C 366.46875 118.683594 372.191406 125.601562 376.964844 131.320312 L 385.644531 141.714844 L 404.007812 141.714844 L 396.058594 132.730469 C 391.027344 127.050781 385.980469 121.378906 380.921875 115.71875 L 373.730469 107.6875 L 376.574219 104.691406 C 378.140625 103.039062 383.65625 96.734375 388.832031 90.675781 C 394.007812 84.617188 399.082031 78.753906 400.109375 77.640625 L 401.972656 75.621094 L 384.441406 75.722656 L 373.058594 89.261719 C 366.796875 96.707031 361.308594 103.292969 360.863281 103.898438 C 360.414062 104.5 359.917969 104.996094 359.761719 104.996094 C 359.601562 104.996094 359.570312 98.386719 359.6875 90.308594 L 359.898438 75.621094 L 345.152344 75.621094 Z M 481.742188 108.609375 L 481.742188 141.714844 L 495.695312 141.714844 L 495.695312 117.40625 L 499.878906 117.625 L 504.0625 117.847656 L 511.386719 129.78125 L 518.714844 141.714844 L 534.625 141.714844 L 531.050781 136.023438 C 528.394531 131.796875 525.734375 127.574219 523.070312 123.355469 L 518.664062 116.378906 L 521.683594 114.675781 C 528.933594 110.578125 531.828125 105.664062 531.878906 97.355469 C 531.917969 91.347656 530.347656 87.050781 526.527344 82.699219 C 525.191406 81.175781 522.417969 79.046875 520.363281 77.964844 C 516.660156 76.011719 516.464844 75.992188 499.183594 75.75 L 481.742188 75.503906 Z M 430.332031 87.324219 C 426.628906 88.449219 423.828125 90.335938 420.871094 93.695312 C 411.804688 103.996094 415.003906 122.335938 426.984375 128.726562 C 429.414062 130.023438 431.207031 130.320312 436.582031 130.320312 C 441.949219 130.320312 443.738281 130.023438 446.125 128.738281 C 449.824219 126.746094 453.179688 123.203125 455.40625 118.949219 C 456.871094 116.152344 457.136719 114.570312 457.136719 108.667969 C 457.136719 102.53125 456.898438 101.246094 455.175781 97.972656 C 452.539062 92.96875 448.1875 89.183594 443.464844 87.78125 C 439.429688 86.582031 433.453125 86.375 430.332031 87.324219 M 495.695312 96.445312 L 495.695312 106.464844 L 503.234375 106.464844 C 509.125 106.464844 511.332031 106.171875 513.332031 105.117188 C 516.09375 103.664062 518.457031 99.875 518.457031 96.90625 C 518.460938 93.953125 515.976562 90.128906 513.074219 88.625 C 511.199219 87.652344 508.1875 87.113281 503.042969 86.828125 L 495.695312 86.421875 Z M 66.554688 93.429688 C 63.585938 100.554688 62.429688 106.179688 62.429688 113.519531 C 62.429688 118.148438 62.882812 121.726562 63.871094 124.929688 C 67.777344 137.574219 77.800781 147.925781 94.007812 156.054688 C 97.117188 157.617188 100.492188 158.785156 101.761719 158.738281 C 104.292969 158.648438 114.171875 153.429688 120.8125 148.671875 C 129.207031 142.65625 135.28125 134.996094 138.84375 125.925781 C 140.3125 122.1875 140.582031 120.183594 140.605469 112.707031 C 140.632812 104.953125 140.386719 103.128906 138.542969 97.507812 C 137.394531 93.996094 136.03125 90.546875 135.519531 89.84375 C 134.640625 88.648438 134.292969 88.691406 129.898438 90.582031 C 123.085938 93.515625 116.105469 97.808594 111.679688 101.785156 C 109.546875 103.703125 106.242188 107.496094 104.332031 110.214844 L 100.863281 115.15625 L 99.570312 112.972656 C 96.988281 108.597656 90.816406 101.871094 86.40625 98.617188 C 83.921875 96.785156 79.003906 93.835938 75.480469 92.0625 C 71.953125 90.292969 68.933594 88.839844 68.769531 88.839844 C 68.605469 88.839844 67.609375 90.90625 66.554688 93.429688 M 125.324219 101.96875 C 115.21875 107.949219 111.050781 113.664062 102.527344 133.253906 L 101.574219 135.441406 L 96.695312 125.847656 C 90.769531 114.191406 85.332031 107.441406 78.617188 103.414062 C 76.011719 101.847656 73.546875 100.679688 73.144531 100.8125 C 71.671875 101.304688 70.453125 108.304688 70.691406 114.910156 C 70.894531 120.503906 71.289062 122.285156 73.261719 126.503906 C 74.660156 129.488281 77.300781 133.289062 79.84375 135.976562 C 84.210938 140.589844 91.960938 146.132812 97.550781 148.640625 L 100.714844 150.058594 L 105.621094 147.644531 C 116.847656 142.128906 125.164062 134.355469 129.734375 125.113281 C 132.074219 120.375 132.5 118.738281 132.722656 113.578125 C 133.011719 106.960938 131.652344 100.335938 129.941406 100.042969 C 129.363281 99.941406 127.285156 100.808594 125.324219 101.96875 " fill-opacity="1" fill-rule="evenodd"/></svg>